<?xml version="1.0" encoding="UTF-8" standalone="no"?>
<!DOCTYPE svg PUBLIC "-//W3C//DTD SVG 1.1//EN" "http://www.w3.org/Graphics/SVG/1.1/DTD/svg11.dtd">
<svg width="100%" height="100%" viewBox="0 0 170 125" version="1.1" xmlns="http://www.w3.org/2000/svg" xmlns:xlink="http://www.w3.org/1999/xlink" xml:space="preserve" xmlns:serif="http://www.serif.com/" style="fill-rule:evenodd;clip-rule:evenodd;stroke-linecap:round;stroke-linejoin:round;stroke-miterlimit:1.5;">
    <g id="lashes" transform="matrix(1,0,0,0.779367,-66.3572,-19.0881)">
        <g transform="matrix(1.54137,-0.00347414,0.0010921,0.484535,-69.1917,21.592)">
            <path d="M144.083,10.459C144.083,9.288 143.85,8.338 143.563,8.338L142.524,8.338C142.238,8.338 142.005,9.288 142.005,10.459L142.005,46.473C142.005,47.643 142.238,48.593 142.524,48.593L143.563,48.593C143.85,48.593 144.083,47.643 144.083,46.473L144.083,10.459Z" style="stroke:black;stroke-width:0.89px;"/>
        </g>
        <g transform="matrix(1.51615,0.277712,-0.0872995,0.476607,-33.433,-14.7534)">
            <path d="M144.083,10.432C144.083,9.276 143.85,8.338 143.563,8.338L142.524,8.338C142.238,8.338 142.005,9.276 142.005,10.432L142.005,46.5C142.005,47.655 142.238,48.593 142.524,48.593L143.563,48.593C143.85,48.593 144.083,47.655 144.083,46.5L144.083,10.432Z" style="stroke:black;stroke-width:0.92px;"/>
        </g>
        <g transform="matrix(1.40639,0.630797,-0.198293,0.442103,10.6651,-52.5274)">
            <path d="M144.083,10.319C144.083,9.226 143.85,8.338 143.563,8.338L142.524,8.338C142.238,8.338 142.005,9.226 142.005,10.319L142.005,46.612C142.005,47.705 142.238,48.593 142.524,48.593L143.563,48.593C143.85,48.593 144.083,47.705 144.083,46.612L144.083,10.319Z" style="stroke:black;stroke-width:0.96px;"/>
        </g>
        <g transform="matrix(1.15546,1.02018,-0.320696,0.363221,70.3298,-89.5667)">
            <path d="M144.083,10.094C144.083,9.125 143.85,8.338 143.563,8.338L142.524,8.338C142.238,8.338 142.005,9.125 142.005,10.094L142.005,46.837C142.005,47.806 142.238,48.593 142.524,48.593L143.563,48.593C143.85,48.593 144.083,47.806 144.083,46.837L144.083,10.094Z" style="stroke:black;stroke-width:1.04px;"/>
        </g>
        <g transform="matrix(-1.51615,0.277712,0.0872995,0.476607,336.059,-14.7534)">
            <path d="M144.083,10.432C144.083,9.276 143.85,8.338 143.563,8.338L142.524,8.338C142.238,8.338 142.005,9.276 142.005,10.432L142.005,46.5C142.005,47.655 142.238,48.593 142.524,48.593L143.563,48.593C143.85,48.593 144.083,47.655 144.083,46.5L144.083,10.432Z" style="stroke:black;stroke-width:0.92px;"/>
        </g>
        <g transform="matrix(-1.40639,0.630797,0.198293,0.442103,291.96,-52.5274)">
            <path d="M144.083,10.319C144.083,9.226 143.85,8.338 143.563,8.338L142.524,8.338C142.238,8.338 142.005,9.226 142.005,10.319L142.005,46.612C142.005,47.705 142.238,48.593 142.524,48.593L143.563,48.593C143.85,48.593 144.083,47.705 144.083,46.612L144.083,10.319Z" style="stroke:black;stroke-width:0.96px;"/>
        </g>
        <g transform="matrix(-1.15546,1.02018,0.320696,0.363221,232.296,-89.5667)">
            <path d="M144.083,10.094C144.083,9.125 143.85,8.338 143.563,8.338L142.524,8.338C142.238,8.338 142.005,9.125 142.005,10.094L142.005,46.837C142.005,47.806 142.238,48.593 142.524,48.593L143.563,48.593C143.85,48.593 144.083,47.806 144.083,46.837L144.083,10.094Z" style="stroke:black;stroke-width:1.04px;"/>
        </g>
    </g>
    <g id="lids" transform="matrix(1,0,0,1,-65.0444,-93.6993)">
        <g transform="matrix(1,1.38634e-17,-1.38634e-17,-0.886797,-37.0009,318.546)">
            <path d="M271.456,190.062C262.665,155.224 227.554,130.435 187.001,130.435C146.448,130.435 111.337,155.224 102.545,190.062C102.545,190.062 120.251,137.408 187.001,137.356C250.824,137.306 271.456,190.062 271.456,190.062Z" style="stroke:black;stroke-width:1.06px;"/>
        </g>
        <g transform="matrix(1,0,0,0.709171,-37.0009,15.2134)">
            <path d="M271.456,190.062C262.665,155.224 227.554,130.435 187.001,130.435C146.448,130.435 111.337,155.224 102.545,190.062C102.545,190.062 120.251,137.408 187.001,137.356C250.824,137.306 271.456,190.062 271.456,190.062Z" style="stroke:black;stroke-width:1.15px;"/>
        </g>
    </g>
    <g transform="matrix(1,0,0,1,-65.0444,-43.8528)">
        <path d="M150,61.491C172.772,61.491 191.26,79.263 191.26,101.154C191.26,123.044 172.772,140.816 150,140.816C127.228,140.816 108.74,123.044 108.74,101.154C108.74,79.263 127.228,61.491 150,61.491ZM150,95.601C153.188,95.601 155.776,98.089 155.776,101.154C155.776,104.218 153.188,106.706 150,106.706C146.812,106.706 144.224,104.218 144.224,101.154C144.224,98.089 146.812,95.601 150,95.601Z" style="fill:rgb(21,0,255);stroke:black;stroke-width:6.06px;"/>
    </g>
    <g transform="matrix(1,0,0,1,-65.0444,-43.8528)">
        <path d="M150,61.491C172.772,61.491 191.26,79.263 191.26,101.154C191.26,123.044 172.772,140.816 150,140.816C127.228,140.816 108.74,123.044 108.74,101.154C108.74,79.263 127.228,61.491 150,61.491ZM150,95.601C153.188,95.601 155.776,98.089 155.776,101.154C155.776,104.218 153.188,106.706 150,106.706C146.812,106.706 144.224,104.218 144.224,101.154C144.224,98.089 146.812,95.601 150,95.601Z" style="fill:none;stroke:black;stroke-width:6.06px;"/>
    </g>
</svg>
